<svg width="35" height="35" viewBox="0 0 35 35" fill="none" xmlns="http://www.w3.org/2000/svg">
<path d="M10.495 35C9.53294 35 8.70967 34.6576 8.02516 33.9728C7.33949 33.2868 6.99665 32.4625 6.99665 31.5C6.99665 30.5375 7.33949 29.7132 8.02516 29.0272C8.70967 28.3424 9.53294 28 10.495 28C11.457 28 12.2803 28.3424 12.9648 29.0272C13.6505 29.7132 13.9933 30.5375 13.9933 31.5C13.9933 32.4625 13.6505 33.2868 12.9648 33.9728C12.2803 34.6576 11.457 35 10.495 35ZM27.9866 35C27.0246 35 26.2013 34.6576 25.5168 33.9728C24.8311 33.2868 24.4883 32.4625 24.4883 31.5C24.4883 30.5375 24.8311 29.7132 25.5168 29.0272C26.2013 28.3424 27.0246 28 27.9866 28C28.9487 28 29.7725 28.3424 30.4582 29.0272C31.1427 29.7132 31.4849 30.5375 31.4849 31.5C31.4849 32.4625 31.1427 33.2868 30.4582 33.9728C29.7725 34.6576 28.9487 35 27.9866 35ZM18.0164 12.775C17.6957 12.4542 17.5354 12.0458 17.5354 11.55C17.5354 11.0542 17.6957 10.6458 18.0164 10.325L19.5469 8.75H13.9933C13.4977 8.75 13.0826 8.58258 12.7479 8.24775C12.4121 7.91175 12.2441 7.49583 12.2441 7C12.2441 6.50417 12.4121 6.08825 12.7479 5.75225C13.0826 5.41742 13.4977 5.25 13.9933 5.25H19.5469L17.9727 3.675C17.6228 3.325 17.4555 2.91667 17.4706 2.45C17.4846 1.98333 17.6666 1.575 18.0164 1.225C18.3662 0.904167 18.7744 0.736167 19.2408 0.721C19.7072 0.707 20.1154 0.875 20.4652 1.225L25.013 5.775C25.188 5.95 25.3121 6.13958 25.3856 6.34375C25.4579 6.54792 25.4941 6.76667 25.4941 7C25.4941 7.23333 25.4579 7.45208 25.3856 7.65625C25.3121 7.86042 25.188 8.05 25.013 8.225L20.4652 12.775C20.1445 13.0958 19.744 13.2632 19.2635 13.2772C18.7819 13.2924 18.3662 13.125 18.0164 12.775ZM10.495 26.25C9.15396 26.25 8.14119 25.6812 7.45668 24.5437C6.77101 23.4062 6.76343 22.2542 7.43395 21.0875L9.79532 16.8L3.49833 3.5H1.74916C1.25357 3.5 0.838432 3.332 0.503759 2.996C0.16792 2.66117 0 2.24583 0 1.75C0 1.25417 0.16792 0.83825 0.503759 0.50225C0.838432 0.167417 1.25357 0 1.74916 0H4.59155C4.91223 0 5.21834 0.0875002 5.50987 0.2625C5.80139 0.4375 6.02004 0.685417 6.1658 1.00625L13.2062 15.75H25.4503L31.7036 4.41875C31.8785 4.12708 32.0971 3.90075 32.3595 3.73975C32.6219 3.57992 32.9134 3.5 33.2341 3.5C33.9046 3.5 34.4078 3.79167 34.7436 4.375C35.0783 4.95833 35.0853 5.54167 34.7646 6.125L28.5114 17.4125C28.1907 17.9958 27.768 18.4479 27.2432 18.7687C26.7185 19.0896 26.1208 19.25 25.4503 19.25H12.4191L10.495 22.75H29.7358C30.2314 22.75 30.6465 22.9174 30.9812 23.2522C31.317 23.5882 31.4849 24.0042 31.4849 24.5C31.4849 24.9958 31.317 25.4112 30.9812 25.746C30.6465 26.082 30.2314 26.25 29.7358 26.25H10.495Z" fill="white"/>
</svg>
