<svg width="60" height="60" viewBox="0 0 60 60" fill="none" xmlns="http://www.w3.org/2000/svg">
<path d="M25.773 0.844342C28.4838 -0.281447 31.5162 -0.281447 34.227 0.844342L56.721 10.186C57.6899 10.588 58.5196 11.2771 59.1038 12.1651C59.6879 13.053 60 14.0994 60 15.1702V44.8329C59.9994 45.9031 59.6871 46.9488 59.1029 47.8362C58.5188 48.7236 57.6894 49.4122 56.721 49.814L34.227 59.1557C31.5162 60.2814 28.4838 60.2814 25.773 59.1557L3.279 49.814C2.3101 49.412 1.48042 48.7229 0.896243 47.8349C0.312067 46.947 -6.07658e-06 45.9006 0 44.8298V15.1733C-6.07658e-06 14.1025 0.312067 13.0561 0.896243 12.1681C1.48042 11.2801 2.3101 10.591 3.279 10.189L25.773 0.847415V0.844342ZM32.535 5.11567C30.9092 4.44086 29.0908 4.44086 27.465 5.11567L21.72 7.50331L44.301 16.4977L52.308 13.3326L32.532 5.11874L32.535 5.11567ZM38.073 18.9591L15.645 10.0231L7.77 13.2927L30.003 22.1487L38.073 18.9591ZM4.5 44.8329C4.50039 44.9854 4.54511 45.1344 4.62845 45.2608C4.7118 45.3872 4.83 45.4854 4.968 45.5427L27.465 54.8843C27.558 54.9243 27.654 54.9612 27.75 54.995V26.1988L4.5 16.9371V44.8329ZM32.535 54.8843L55.032 45.5427C55.1705 45.4852 55.289 45.3866 55.3724 45.2595C55.4558 45.1325 55.5002 44.9829 55.5 44.8298V17.0109L32.25 26.205V54.998C32.3458 54.9634 32.4409 54.9265 32.535 54.8874V54.8843Z" fill="#454545"/>
</svg>
