<?xml version="1.0" encoding="UTF-8" standalone="no"?>
<svg
   width="80"
   height="75"
   viewBox="0 0 80 75"
   fill="none"
   version="1.1"
   id="svg6"
   sodipodi:docname="phone.svg"
   inkscape:version="1.1.2 (b8e25be833, 2022-02-05)"
   xmlns:inkscape="http://www.inkscape.org/namespaces/inkscape"
   xmlns:sodipodi="http://sodipodi.sourceforge.net/DTD/sodipodi-0.dtd"
   xmlns="http://www.w3.org/2000/svg"
   xmlns:svg="http://www.w3.org/2000/svg">
  <defs
     id="defs10" />
  <sodipodi:namedview
     id="namedview8"
     pagecolor="#ffffff"
     bordercolor="#999999"
     borderopacity="1"
     inkscape:pageshadow="0"
     inkscape:pageopacity="0"
     inkscape:pagecheckerboard="0"
     showgrid="false"
     inkscape:zoom="1.1983333"
     inkscape:cx="-57.162726"
     inkscape:cy="39.22114"
     inkscape:window-width="1920"
     inkscape:window-height="1017"
     inkscape:window-x="-8"
     inkscape:window-y="-8"
     inkscape:window-maximized="1"
     inkscape:current-layer="svg6" />
  <path
     d="m 76.648644,54.9 c -0.1549,-0.9315 -0.3893,-1.8474 -0.7005,-2.7375 -0.2028,-0.602 -0.5529,-1.1416 -1.0173,-1.568 -0.4644,-0.4265 -1.0278,-0.7257 -1.6373,-0.8695 l -22.122,-5.1375 c -0.6005,-0.1385 -1.2255,-0.1218 -1.818,0.0485 -0.5925,0.1703 -1.1336,0.4888 -1.574,0.9265 -0.5162,0.4875 -0.5531,0.525 -2.9496,5.175 -7.9489,-3.7444 -14.3273,-10.2451 -17.9925,-18.3375 4.7193,-2.4 4.7562,-2.4 5.2355,-2.9625 0.4303,-0.4479 0.7435,-0.9983 0.9109,-1.6009 0.1675,-0.6027 0.1839,-1.2384 0.0477,-1.8491 L 27.980344,3.75 c -0.1414,-0.61989 -0.4356,-1.19298 -0.8548,-1.66533 -0.4193,-0.47235 -0.9498,-0.82841 -1.5417,-1.03467 -0.861,-0.31279 -1.7502,-0.538874 -2.6546,-0.675 -0.9319,-0.219768 -1.8829,-0.3453775 -2.839,-0.375 -4.4981,0 -8.81203,1.81741 -11.99268,5.05241 -3.18065,3.235 -4.96752,7.62259 -4.96752,12.19759 0.019511,15.3102 6.00791,29.9876 16.6519,40.8135 10.6441,10.8259 25.0749,16.9167 40.1278,16.9365 2.2272,0 4.4327,-0.4462 6.4904,-1.3131 2.0577,-0.8669 3.9273,-2.1375 5.5022,-3.7393 1.5749,-1.6018 2.8242,-3.5034 3.6765,-5.5963 0.8524,-2.0929 1.2911,-4.336 1.2911,-6.6013 0.0011,-0.9545 -0.0729,-1.9075 -0.2213,-2.85 z m -16.7389,12.6 c -13.1002,-0.0099 -25.6611,-5.3073 -34.9243,-14.7289 -9.2633,-9.4215 -14.47165,-22.197 -14.48141,-35.5211 0.0097,-2.5828 1.0228,-5.057 2.81841,-6.8834 1.7957,-1.82632 4.2283,-2.85672 6.7678,-2.8666 h 1.2167 l 3.9451,17.4 -2.0279,1.0875 c -3.2077,1.6875 -5.5305,2.925 -4.3138,5.925 2.1614,6.2234 5.6587,11.879 10.2378,16.5558 4.5791,4.6768 10.1251,8.2574 16.2348,10.4817 3.0971,1.275 4.3138,-1.0875 5.973,-4.35 l 1.0692,-2.0625 17.0708,3.975 V 57.75 c -0.0097,2.5828 -1.0228,5.057 -2.8185,6.8834 -1.7956,1.8263 -4.2283,2.8567 -6.7677,2.8666 z"
     fill="#f16923"
     id="path2"
     sodipodi:nodetypes="cccccscccccccccccscccssccccccccccccscccccsc" />
</svg>
