<svg width="78" height="60" viewBox="0 0 78 60" fill="none" xmlns="http://www.w3.org/2000/svg">
<path d="M77.9863 22.8129V22.7415C77.9915 22.6566 77.9804 22.5715 77.9538 22.4916V22.3845C77.9538 22.3131 77.9213 22.2417 77.9213 22.1703V22.0989C77.8888 21.9918 77.8888 21.9204 77.8563 21.8133H77.8238L73.2746 9.31795C72.8937 8.24979 72.2272 7.33349 71.3629 6.68981C70.4986 6.04612 69.4771 5.70526 68.433 5.71215H57.1899V2.85608C57.1899 2.0986 56.916 1.37214 56.4285 0.836526C55.941 0.300908 55.2798 0 54.5904 0H5.19908C3.8202 0 2.49779 0.601814 1.52278 1.67305C0.547759 2.74429 0 4.1972 0 5.71215V45.6972C0 47.2122 0.547759 48.6651 1.52278 49.7363C2.49779 50.8076 3.8202 51.4094 5.19908 51.4094H9.42334C9.99602 53.8668 11.2968 56.0449 13.1207 57.6003C14.9446 59.1557 17.1877 60 19.4966 60C21.8054 60 24.0486 59.1557 25.8724 57.6003C27.6963 56.0449 28.9971 53.8668 29.5698 51.4094H48.4165C48.9892 53.8668 50.29 56.0449 52.1138 57.6003C53.9377 59.1557 56.1809 60 58.4897 60C60.7985 60 63.0417 59.1557 64.8656 57.6003C66.6894 56.0449 67.9902 53.8668 68.5629 51.4094H72.7872C74.1661 51.4094 75.4885 50.8076 76.4635 49.7363C77.4385 48.6651 77.9863 47.2122 77.9863 45.6972V22.8486V22.8129ZM68.433 11.4243L71.5524 19.9925H57.1899V11.4243H68.433ZM51.9908 5.71215V28.5608H5.19908V5.71215H51.9908ZM5.19908 34.2729H51.9908V39.6281C50.2433 41.183 48.9914 43.3086 48.4165 45.6972H29.5698C28.9971 43.2398 27.6963 41.0617 25.8724 39.5063C24.0486 37.9509 21.8054 37.1066 19.4966 37.1066C17.1877 37.1066 14.9446 37.9509 13.1207 39.5063C11.2968 41.0617 9.99602 43.2398 9.42334 45.6972H5.19908V34.2729ZM19.4966 54.2654C18.4683 54.2654 17.4631 53.9304 16.6081 53.3028C15.7531 52.6751 15.0867 51.783 14.6932 50.7392C14.2997 49.6955 14.1968 48.547 14.3974 47.4389C14.598 46.3309 15.0932 45.3131 15.8203 44.5142C16.5474 43.7153 17.4738 43.1713 18.4823 42.9509C19.4908 42.7305 20.5362 42.8436 21.4862 43.276C22.4362 43.7083 23.2482 44.4404 23.8194 45.3798C24.3907 46.3191 24.6957 47.4235 24.6957 48.5533C24.6957 50.0683 24.1479 51.5212 23.1729 52.5924C22.1979 53.6636 20.8755 54.2654 19.4966 54.2654ZM58.4897 54.2654C57.4614 54.2654 56.4562 53.9304 55.6012 53.3028C54.7463 52.6751 54.0799 51.783 53.6864 50.7392C53.2929 49.6955 53.1899 48.547 53.3905 47.4389C53.5911 46.3309 54.0863 45.3131 54.8134 44.5142C55.5405 43.7153 56.4669 43.1713 57.4754 42.9509C58.4839 42.7305 59.5293 42.8436 60.4793 43.276C61.4293 43.7083 62.2413 44.4404 62.8126 45.3798C63.3839 46.3191 63.6888 47.4235 63.6888 48.5533C63.6888 50.0683 63.141 51.5212 62.166 52.5924C61.191 53.6636 59.8686 54.2654 58.4897 54.2654ZM72.7872 45.6972H68.5629C67.9814 43.247 66.6776 41.0774 64.8552 39.5273C63.0328 37.9772 60.7944 37.1338 58.4897 37.129C58.0546 37.1291 57.6202 37.1649 57.1899 37.2361V25.7047H72.7872V45.6972Z" fill="#454545"/>
</svg>
